<svg width="14" height="11" viewBox="0 0 14 11" fill="none" xmlns="http://www.w3.org/2000/svg">
<path fill-rule="evenodd" clip-rule="evenodd" d="M12.0004 1.2605C12.5512 1.41164 12.9849 1.85695 13.1321 2.42245C13.3996 3.44736 13.3996 5.58584 13.3996 5.58584C13.3996 5.58584 13.3996 7.72425 13.1321 8.74923C12.9849 9.31473 12.5512 9.76004 12.0004 9.91125C11.0023 10.1858 6.99961 10.1858 6.99961 10.1858C6.99961 10.1858 2.99692 10.1858 1.99874 9.91125C1.44797 9.76004 1.01423 9.31473 0.867028 8.74923C0.599609 7.72425 0.599609 5.58584 0.599609 5.58584C0.599609 5.58584 0.599609 3.44736 0.867028 2.42245C1.01423 1.85695 1.44797 1.41164 1.99874 1.2605C2.99692 0.98584 6.99961 0.98584 6.99961 0.98584C6.99961 0.98584 11.0023 0.98584 12.0004 1.2605ZM5.79962 3.7858V7.7858L8.99962 5.78587L5.79962 3.7858Z" fill="white"/>
</svg>
