<svg width="14" height="14" viewBox="0 0 14 14" fill="none" xmlns="http://www.w3.org/2000/svg">
<path fill-rule="evenodd" clip-rule="evenodd" d="M7.00021 0.98584C5.26206 0.98584 5.04392 0.99344 4.36125 1.02451C3.67991 1.05571 3.21484 1.16358 2.8079 1.32184C2.38696 1.48531 2.02989 1.70398 1.67415 2.05985C1.31815 2.41559 1.09948 2.77266 0.93548 3.19346C0.776811 3.60053 0.66881 4.06574 0.638143 4.74681C0.607609 5.42949 0.599609 5.64775 0.599609 7.38591C0.599609 9.12406 0.607343 9.34153 0.638276 10.0242C0.66961 10.7055 0.777478 11.1706 0.935613 11.5775C1.09921 11.9985 1.31788 12.3556 1.67375 12.7113C2.02936 13.0673 2.38643 13.2865 2.8071 13.45C3.2143 13.6082 3.67951 13.7161 4.36072 13.7473C5.04339 13.7784 5.26139 13.786 6.99941 13.786C8.73769 13.786 8.95516 13.7784 9.63784 13.7473C10.3192 13.7161 10.7848 13.6082 11.192 13.45C11.6128 13.2865 11.9693 13.0673 12.3249 12.7113C12.6809 12.3556 12.8996 11.9985 13.0636 11.5777C13.2209 11.1706 13.3289 10.7054 13.3609 10.0243C13.3916 9.34166 13.3996 9.12406 13.3996 7.38591C13.3996 5.64775 13.3916 5.42962 13.3609 4.74695C13.3289 4.0656 13.2209 3.60053 13.0636 3.1936C12.8996 2.77266 12.6809 2.41559 12.3249 2.05985C11.9689 1.70385 11.6129 1.48518 11.1916 1.32184C10.7836 1.16358 10.3182 1.05571 9.6369 1.02451C8.95423 0.99344 8.73689 0.98584 6.99821 0.98584H7.00021ZM6.42604 2.13917C6.59644 2.1389 6.78658 2.13917 7.00018 2.13917C8.709 2.13917 8.91154 2.1453 9.58634 2.17597C10.2103 2.2045 10.549 2.30877 10.7746 2.39637C11.0733 2.51237 11.2862 2.65104 11.5101 2.87504C11.7341 3.09904 11.8728 3.31238 11.989 3.61105C12.0766 3.83639 12.181 4.17506 12.2094 4.79906C12.2401 5.47374 12.2468 5.6764 12.2468 7.38442C12.2468 9.09244 12.2401 9.29511 12.2094 9.96978C12.1809 10.5938 12.0766 10.9325 11.989 11.1578C11.873 11.4565 11.7341 11.6691 11.5101 11.893C11.2861 12.117 11.0734 12.2557 10.7746 12.3717C10.5493 12.4597 10.2103 12.5637 9.58634 12.5922C8.91167 12.6229 8.709 12.6295 7.00018 12.6295C5.29123 12.6295 5.0887 12.6229 4.41402 12.5922C3.79002 12.5634 3.45134 12.4591 3.22561 12.3715C2.92694 12.2555 2.7136 12.1169 2.4896 11.8929C2.2656 11.6689 2.12693 11.4561 2.01066 11.1573C1.92306 10.9319 1.81866 10.5933 1.79026 9.96925C1.75959 9.29458 1.75346 9.09191 1.75346 7.38282C1.75346 5.67374 1.75959 5.47214 1.79026 4.79746C1.81879 4.17345 1.92306 3.83478 2.01066 3.60918C2.12666 3.31051 2.2656 3.09718 2.4896 2.87317C2.7136 2.64917 2.92694 2.5105 3.22561 2.39424C3.45121 2.30624 3.79002 2.20223 4.41402 2.17357C5.00443 2.1469 5.23323 2.1389 6.42604 2.13757V2.13917ZM10.4165 3.20185C9.99248 3.20185 9.64848 3.54545 9.64848 3.96959C9.64848 4.39359 9.99248 4.7376 10.4165 4.7376C10.8405 4.7376 11.1845 4.39359 11.1845 3.96959C11.1845 3.54558 10.8405 3.20185 10.4165 3.20185ZM7.00022 4.09919C5.18513 4.09919 3.71352 5.5708 3.71352 7.38589C3.71352 9.20097 5.18513 10.6719 7.00022 10.6719C8.81531 10.6719 10.2864 9.20097 10.2864 7.38589C10.2864 5.5708 8.81531 4.09919 7.00022 4.09919ZM7.0002 5.25253C8.17834 5.25253 9.13355 6.20761 9.13355 7.38589C9.13355 8.56403 8.17834 9.51924 7.0002 9.51924C5.82192 9.51924 4.86684 8.56403 4.86684 7.38589C4.86684 6.20761 5.82192 5.25253 7.0002 5.25253Z" fill="white"/>
</svg>
