<svg width="14" height="14" viewBox="0 0 14 14" fill="none" xmlns="http://www.w3.org/2000/svg">
<path fill-rule="evenodd" clip-rule="evenodd" d="M13.3996 7.37697C13.3996 7.80979 13.3555 8.242 13.269 8.66332C13.1846 9.07462 13.0596 9.47843 12.8958 9.86444C12.7359 10.2436 12.5374 10.609 12.3055 10.9498C12.0771 11.2884 11.8139 11.6061 11.5248 11.8957C11.2351 12.184 10.9164 12.4465 10.5779 12.6759C10.236 12.9061 9.87011 13.1043 9.49069 13.265C9.10412 13.4279 8.69938 13.5527 8.28843 13.637C7.86656 13.7238 7.43277 13.7681 6.99932 13.7681C6.56555 13.7681 6.13178 13.7238 5.71051 13.637C5.29894 13.5527 4.89422 13.4279 4.50795 13.265C4.12856 13.1043 3.76228 12.9061 3.42039 12.6759C3.08194 12.4465 2.76317 12.184 2.47409 11.8957C2.18471 11.6061 1.92156 11.2884 1.6928 10.9498C1.46216 10.609 1.26339 10.2436 1.10277 9.86444C0.93899 9.47843 0.813689 9.0746 0.728994 8.66332C0.643372 8.242 0.599609 7.80979 0.599609 7.37697C0.599609 6.94382 0.643347 6.51068 0.729019 6.09029C0.813714 5.67899 0.939015 5.27456 1.10279 4.88917C1.26342 4.5097 1.46219 4.14397 1.69283 3.80318C1.92159 3.46429 2.18474 3.14721 2.47412 2.85729C2.7632 2.56893 3.08196 2.30713 3.42042 2.07808C3.7623 1.84683 4.12859 1.64869 4.50797 1.48765C4.89425 1.32441 5.29894 1.19929 5.71054 1.11566C6.13181 1.02954 6.56558 0.98584 6.99935 0.98584C7.43279 0.98584 7.86656 1.02954 8.28846 1.11566C8.69941 1.19931 9.10412 1.32443 9.49072 1.48765C9.87011 1.64866 10.2361 1.84683 10.5779 2.07808C10.9164 2.30713 11.2352 2.56893 11.5249 2.85729C11.814 3.14721 12.0771 3.46429 12.3055 3.80318C12.5374 4.14397 12.7359 4.50973 12.8958 4.88917C13.0596 5.27456 13.1846 5.67899 13.269 6.09029C13.3555 6.51068 13.3996 6.94382 13.3996 7.37697ZM4.6673 2.44037C3.14314 3.15908 2.00558 4.5615 1.65087 6.25165C1.79496 6.2529 4.07258 6.28162 6.69677 5.58537C5.7508 3.90708 4.74012 2.53745 4.6673 2.44037ZM7.1496 6.4258C4.33541 7.2671 1.63494 7.20657 1.53807 7.20284C1.53649 7.2615 1.53369 7.31828 1.53369 7.37696C1.53369 8.77905 2.0634 10.0573 2.93407 11.0238C2.93219 11.0209 4.42792 8.3712 7.37743 7.41878C7.44867 7.39507 7.52119 7.37383 7.59306 7.35325C7.45589 7.04307 7.30616 6.73225 7.1496 6.4258ZM10.6089 3.28078C9.64661 2.4335 8.38313 1.91956 6.9993 1.91956C6.55521 1.91956 6.12425 1.97324 5.71142 2.07247C5.79328 2.18234 6.81992 3.5423 7.75464 5.25614C9.81695 4.48411 10.5954 3.30074 10.6089 3.28078ZM7.96563 8.25761C7.95345 8.26164 7.94128 8.26512 7.92938 8.26947C4.70458 9.39206 3.65148 11.6544 3.64008 11.6791C4.56796 12.3996 5.73177 12.8344 6.99934 12.8344C7.75623 12.8344 8.4772 12.6805 9.13317 12.4018C9.05223 11.925 8.73472 10.2536 7.96563 8.25761ZM10.0535 11.9032C11.2808 11.0762 12.1524 9.76304 12.3955 8.24198C12.283 8.20578 10.7539 7.72239 8.98969 8.00482C9.7066 9.9721 9.99789 11.5743 10.0535 11.9032ZM8.17534 6.0694C8.30219 6.32967 8.42504 6.59457 8.53846 6.8608C8.57879 6.9563 8.61817 7.04993 8.6566 7.14353C10.5342 6.9076 12.384 7.30454 12.4631 7.32075C12.4506 6.02695 11.9871 4.83953 11.2202 3.90991C11.2099 3.92454 10.3333 5.18935 8.17534 6.0694Z" fill="white"/>
</svg>
