<svg width="164" height="22" viewBox="0 0 164 22" fill="none" xmlns="http://www.w3.org/2000/svg">
<path d="M12.2857 2C9.92371 2 8 3.92371 8 6.28571V15.7143C8 18.0763 9.92371 20 12.2857 20H21.7143C24.0763 20 26 18.0763 26 15.7143V6.28571C26 3.92371 24.0763 2 21.7143 2H12.2857ZM14.0025 5.44699C14.2717 5.45856 14.5188 5.6102 14.668 5.84291C14.8377 6.10777 15.1011 6.51882 15.4439 7.05497C15.7568 7.54397 15.7786 8.17555 15.4992 8.68555L14.8714 9.57868C14.7017 9.8204 14.6678 10.1298 14.7818 10.4023C14.9592 10.8266 15.3032 11.4787 15.9143 12.0898C16.5255 12.701 17.1776 13.0449 17.6018 13.2224C17.8744 13.3364 18.1838 13.3025 18.4255 13.1328L19.3186 12.505C19.8286 12.2256 20.4602 12.2478 20.9492 12.5603C21.4854 12.9031 21.8964 13.1665 22.1613 13.3362C22.394 13.4854 22.5456 13.7325 22.5572 14.0017C22.6232 15.5291 21.4398 16.1479 21.0957 16.1479C20.8574 16.1479 17.9927 16.4735 14.7617 13.2425C11.5307 10.0115 11.8563 7.14677 11.8563 6.90848C11.8563 6.56434 12.4751 5.38099 14.0025 5.44699Z" fill="#F5F5F5"/>
<path d="M42.028 11.61C42.088 11.61 42.136 11.634 42.172 11.682C42.22 11.718 42.244 11.766 42.244 11.826V13.194C42.244 13.254 42.22 13.308 42.172 13.356C42.136 13.392 42.088 13.41 42.028 13.41H39.4C39.34 13.41 39.31 13.44 39.31 13.5V16.092C39.31 16.152 39.286 16.206 39.238 16.254C39.202 16.29 39.154 16.308 39.094 16.308H37.744C37.684 16.308 37.63 16.29 37.582 16.254C37.546 16.206 37.528 16.152 37.528 16.092V13.5C37.528 13.44 37.498 13.41 37.438 13.41H34.792C34.732 13.41 34.678 13.392 34.63 13.356C34.594 13.308 34.576 13.254 34.576 13.194V11.826C34.576 11.766 34.594 11.718 34.63 11.682C34.678 11.634 34.732 11.61 34.792 11.61H37.438C37.498 11.61 37.528 11.58 37.528 11.52V8.856C37.528 8.796 37.546 8.748 37.582 8.712C37.63 8.664 37.684 8.64 37.744 8.64H39.094C39.154 8.64 39.202 8.664 39.238 8.712C39.286 8.748 39.31 8.796 39.31 8.856V11.52C39.31 11.58 39.34 11.61 39.4 11.61H42.028ZM51.1398 7.632C51.3318 8.136 51.4278 8.724 51.4278 9.396V14.886C51.4278 15.534 51.2658 16.104 50.9418 16.596C50.6178 17.088 50.1618 17.472 49.5738 17.748C48.9978 18.012 48.3318 18.144 47.5758 18.144C46.8438 18.144 46.1898 18.012 45.6138 17.748C45.0498 17.484 44.6058 17.112 44.2818 16.632C43.9698 16.152 43.8138 15.6 43.8138 14.976V14.58C43.8138 14.52 43.8318 14.472 43.8678 14.436C43.9158 14.388 43.9698 14.364 44.0298 14.364H45.6858C45.7458 14.364 45.7938 14.388 45.8298 14.436C45.8778 14.472 45.9018 14.52 45.9018 14.58V14.706C45.9018 15.186 46.0578 15.582 46.3698 15.894C46.6818 16.194 47.0838 16.344 47.5758 16.344C48.0918 16.344 48.5118 16.188 48.8358 15.876C49.1718 15.552 49.3398 15.138 49.3398 14.634V12.654C49.3398 12.618 49.3278 12.594 49.3038 12.582C49.2798 12.57 49.2558 12.576 49.2318 12.6C48.7158 13.104 48.0138 13.356 47.1258 13.356C46.4178 13.356 45.7938 13.206 45.2538 12.906C44.7258 12.606 44.3118 12.174 44.0118 11.61C43.6758 11.01 43.5078 10.266 43.5078 9.378C43.5078 8.646 43.6278 8.004 43.8678 7.452C44.1558 6.768 44.6118 6.234 45.2358 5.85C45.8598 5.466 46.5978 5.274 47.4498 5.274C48.3498 5.274 49.1178 5.484 49.7538 5.904C50.4018 6.312 50.8638 6.888 51.1398 7.632ZM49.0518 10.692C49.2438 10.308 49.3398 9.84 49.3398 9.288C49.3398 8.832 49.2618 8.43 49.1058 8.082C48.8178 7.422 48.2778 7.092 47.4858 7.092C46.7178 7.092 46.1778 7.416 45.8658 8.064C45.6858 8.46 45.5958 8.886 45.5958 9.342C45.5958 9.882 45.7038 10.344 45.9198 10.728C46.2558 11.304 46.7718 11.592 47.4678 11.592C48.2118 11.592 48.7398 11.292 49.0518 10.692ZM54.8624 5.454C54.9584 5.418 55.0484 5.4 55.1324 5.4H56.8604C56.9204 5.4 56.9684 5.424 57.0044 5.472C57.0524 5.508 57.0764 5.556 57.0764 5.616V17.784C57.0764 17.844 57.0524 17.898 57.0044 17.946C56.9684 17.982 56.9204 18 56.8604 18H55.2044C55.1444 18 55.0904 17.982 55.0424 17.946C55.0064 17.898 54.9884 17.844 54.9884 17.784V7.56C54.9884 7.536 54.9764 7.518 54.9524 7.506C54.9284 7.482 54.9044 7.476 54.8804 7.488L53.0804 8.046C53.0564 8.058 53.0264 8.064 52.9904 8.064C52.9424 8.064 52.9004 8.046 52.8644 8.01C52.8404 7.974 52.8284 7.926 52.8284 7.866L52.7744 6.678C52.7744 6.558 52.8224 6.474 52.9184 6.426L54.8624 5.454ZM64.8116 5.454C64.9076 5.418 64.9976 5.4 65.0816 5.4H66.8096C66.8696 5.4 66.9176 5.424 66.9536 5.472C67.0016 5.508 67.0256 5.556 67.0256 5.616V17.784C67.0256 17.844 67.0016 17.898 66.9536 17.946C66.9176 17.982 66.8696 18 66.8096 18H65.1536C65.0936 18 65.0396 17.982 64.9916 17.946C64.9556 17.898 64.9376 17.844 64.9376 17.784V7.56C64.9376 7.536 64.9256 7.518 64.9016 7.506C64.8776 7.482 64.8536 7.476 64.8296 7.488L63.0296 8.046C63.0056 8.058 62.9756 8.064 62.9396 8.064C62.8916 8.064 62.8496 8.046 62.8136 8.01C62.7896 7.974 62.7776 7.926 62.7776 7.866L62.7236 6.678C62.7236 6.558 62.7716 6.474 62.8676 6.426L64.8116 5.454ZM71.9673 16.092C71.9433 16.116 71.9313 16.14 71.9313 16.164C71.9433 16.188 71.9673 16.2 72.0033 16.2H77.1333C77.1933 16.2 77.2413 16.224 77.2773 16.272C77.3253 16.308 77.3493 16.356 77.3493 16.416V17.784C77.3493 17.844 77.3253 17.898 77.2773 17.946C77.2413 17.982 77.1933 18 77.1333 18H69.3933C69.3333 18 69.2793 17.982 69.2313 17.946C69.1953 17.898 69.1773 17.844 69.1773 17.784V16.488C69.1773 16.38 69.2133 16.29 69.2853 16.218C70.1973 15.246 71.2533 14.052 72.4533 12.636L73.2993 11.646C74.4033 10.362 74.9553 9.39 74.9553 8.73C74.9553 8.238 74.7813 7.836 74.4333 7.524C74.0853 7.212 73.6353 7.056 73.0833 7.056C72.5313 7.056 72.0813 7.212 71.7333 7.524C71.3973 7.836 71.2293 8.25 71.2293 8.766V9.234C71.2293 9.294 71.2053 9.348 71.1573 9.396C71.1213 9.432 71.0733 9.45 71.0133 9.45H69.3393C69.2793 9.45 69.2253 9.432 69.1773 9.396C69.1413 9.348 69.1233 9.294 69.1233 9.234V8.46C69.1473 7.812 69.3333 7.248 69.6813 6.768C70.0293 6.288 70.4973 5.916 71.0853 5.652C71.6853 5.388 72.3513 5.256 73.0833 5.256C73.8873 5.256 74.5893 5.406 75.1893 5.706C75.7893 6.006 76.2513 6.42 76.5753 6.948C76.8993 7.464 77.0613 8.046 77.0613 8.694C77.0613 9.678 76.5393 10.812 75.4953 12.096C74.9193 12.816 73.9713 13.896 72.6513 15.336L71.9673 16.092ZM86.278 12.006C86.518 12.582 86.638 13.242 86.638 13.986C86.638 14.658 86.536 15.252 86.332 15.768C86.056 16.524 85.6 17.112 84.964 17.532C84.328 17.94 83.56 18.144 82.66 18.144C81.772 18.144 80.998 17.922 80.338 17.478C79.69 17.022 79.228 16.41 78.952 15.642C78.808 15.27 78.724 14.784 78.7 14.184C78.7 14.04 78.772 13.968 78.916 13.968H80.59C80.734 13.968 80.806 14.04 80.806 14.184C80.83 14.568 80.89 14.874 80.986 15.102C81.094 15.486 81.292 15.792 81.58 16.02C81.88 16.236 82.24 16.344 82.66 16.344C83.452 16.344 83.998 15.984 84.298 15.264C84.454 14.916 84.532 14.466 84.532 13.914C84.532 13.302 84.442 12.798 84.262 12.402C83.95 11.73 83.41 11.394 82.642 11.394C82.438 11.394 82.162 11.514 81.814 11.754C81.766 11.778 81.724 11.79 81.688 11.79C81.628 11.79 81.568 11.754 81.508 11.682L80.68 10.53C80.644 10.47 80.626 10.422 80.626 10.386C80.626 10.326 80.65 10.272 80.698 10.224L83.668 7.308C83.692 7.284 83.698 7.26 83.686 7.236C83.674 7.212 83.65 7.2 83.614 7.2H79.114C79.054 7.2 79 7.182 78.952 7.146C78.916 7.098 78.898 7.044 78.898 6.984V5.616C78.898 5.556 78.916 5.508 78.952 5.472C79 5.424 79.054 5.4 79.114 5.4H86.296C86.356 5.4 86.404 5.424 86.44 5.472C86.488 5.508 86.512 5.556 86.512 5.616V7.182C86.512 7.29 86.476 7.38 86.404 7.452L83.83 10.044C83.782 10.092 83.806 10.128 83.902 10.152C85.018 10.308 85.81 10.926 86.278 12.006ZM96.9565 12.816C97.0165 12.816 97.0645 12.84 97.1005 12.888C97.1485 12.924 97.1725 12.972 97.1725 13.032V14.472C97.1725 14.532 97.1485 14.586 97.1005 14.634C97.0645 14.67 97.0165 14.688 96.9565 14.688H96.2005C96.1405 14.688 96.1105 14.718 96.1105 14.778V17.784C96.1105 17.844 96.0865 17.898 96.0385 17.946C96.0025 17.982 95.9545 18 95.8945 18H94.2385C94.1785 18 94.1245 17.982 94.0765 17.946C94.0405 17.898 94.0225 17.844 94.0225 17.784V14.778C94.0225 14.718 93.9925 14.688 93.9325 14.688H88.4605C88.4005 14.688 88.3465 14.67 88.2985 14.634C88.2625 14.586 88.2445 14.532 88.2445 14.472V13.32C88.2445 13.248 88.2625 13.158 88.2985 13.05L91.7005 5.562C91.7485 5.454 91.8325 5.4 91.9525 5.4H93.7165C93.8005 5.4 93.8545 5.424 93.8785 5.472C93.9145 5.508 93.9145 5.568 93.8785 5.652L90.6745 12.708C90.6625 12.732 90.6625 12.756 90.6745 12.78C90.6865 12.804 90.7045 12.816 90.7285 12.816H93.9325C93.9925 12.816 94.0225 12.786 94.0225 12.726V10.278C94.0225 10.218 94.0405 10.17 94.0765 10.134C94.1245 10.086 94.1785 10.062 94.2385 10.062H95.8945C95.9545 10.062 96.0025 10.086 96.0385 10.134C96.0865 10.17 96.1105 10.218 96.1105 10.278V12.726C96.1105 12.786 96.1405 12.816 96.2005 12.816H96.9565ZM106.694 12.348C106.85 12.888 106.928 13.446 106.928 14.022C106.928 14.586 106.85 15.12 106.694 15.624C106.442 16.392 105.98 17.004 105.308 17.46C104.636 17.904 103.85 18.126 102.95 18.126C102.062 18.126 101.288 17.91 100.628 17.478C99.9678 17.034 99.5058 16.44 99.2418 15.696C99.1458 15.432 99.0678 15.132 99.0078 14.796V14.76C99.0078 14.628 99.0798 14.562 99.2238 14.562H100.934C101.054 14.562 101.132 14.628 101.168 14.76C101.18 14.832 101.21 14.94 101.258 15.084C101.39 15.48 101.6 15.786 101.888 16.002C102.176 16.218 102.524 16.326 102.932 16.326C103.352 16.326 103.712 16.212 104.012 15.984C104.312 15.744 104.522 15.42 104.642 15.012C104.75 14.724 104.804 14.394 104.804 14.022C104.804 13.674 104.756 13.332 104.66 12.996C104.576 12.6 104.384 12.3 104.084 12.096C103.784 11.88 103.418 11.772 102.986 11.772C102.578 11.772 102.206 11.868 101.87 12.06C101.546 12.24 101.336 12.48 101.24 12.78C101.192 12.9 101.108 12.96 100.988 12.96H99.2418C99.1818 12.96 99.1278 12.942 99.0798 12.906C99.0438 12.858 99.0258 12.804 99.0258 12.744V5.616C99.0258 5.556 99.0438 5.508 99.0798 5.472C99.1278 5.424 99.1818 5.4 99.2418 5.4H106.244C106.304 5.4 106.352 5.424 106.388 5.472C106.436 5.508 106.46 5.556 106.46 5.616V6.984C106.46 7.044 106.436 7.098 106.388 7.146C106.352 7.182 106.304 7.2 106.244 7.2H101.204C101.144 7.2 101.114 7.23 101.114 7.29L101.096 10.53C101.096 10.578 101.108 10.608 101.132 10.62C101.156 10.62 101.18 10.608 101.204 10.584C101.768 10.164 102.446 9.954 103.238 9.954C104.078 9.954 104.804 10.17 105.416 10.602C106.04 11.022 106.466 11.604 106.694 12.348ZM115.969 11.79C116.293 12.402 116.455 13.146 116.455 14.022C116.455 14.754 116.335 15.396 116.095 15.948C115.807 16.644 115.351 17.184 114.727 17.568C114.115 17.94 113.377 18.126 112.513 18.126C111.613 18.126 110.845 17.922 110.209 17.514C109.573 17.094 109.117 16.512 108.841 15.768C108.649 15.264 108.553 14.676 108.553 14.004V8.514C108.553 7.866 108.715 7.296 109.039 6.804C109.363 6.312 109.813 5.934 110.389 5.67C110.977 5.394 111.649 5.256 112.405 5.256C113.137 5.256 113.785 5.388 114.349 5.652C114.925 5.916 115.369 6.288 115.681 6.768C116.005 7.248 116.167 7.8 116.167 8.424V8.82C116.167 8.88 116.143 8.934 116.095 8.982C116.059 9.018 116.011 9.036 115.951 9.036H114.295C114.235 9.036 114.181 9.018 114.133 8.982C114.097 8.934 114.079 8.88 114.079 8.82V8.694C114.079 8.214 113.917 7.824 113.593 7.524C113.281 7.212 112.879 7.056 112.387 7.056C111.883 7.056 111.463 7.218 111.127 7.542C110.803 7.854 110.641 8.262 110.641 8.766V10.728C110.641 10.764 110.653 10.788 110.677 10.8C110.701 10.812 110.725 10.806 110.749 10.782C111.253 10.29 111.949 10.044 112.837 10.044C113.545 10.044 114.163 10.194 114.691 10.494C115.231 10.794 115.657 11.226 115.969 11.79ZM114.097 15.336C114.277 14.976 114.367 14.55 114.367 14.058C114.367 13.518 114.265 13.056 114.061 12.672C113.725 12.096 113.203 11.808 112.495 11.808C111.751 11.808 111.223 12.108 110.911 12.708C110.731 13.068 110.641 13.536 110.641 14.112C110.641 14.604 110.719 15.006 110.875 15.318C111.163 15.978 111.703 16.308 112.495 16.308C113.251 16.308 113.785 15.984 114.097 15.336ZM119.592 18C119.412 18 119.352 17.916 119.412 17.748L123.39 7.308C123.414 7.236 123.39 7.2 123.318 7.2H119.448C119.388 7.2 119.358 7.23 119.358 7.29V8.1C119.358 8.16 119.334 8.214 119.286 8.262C119.25 8.298 119.202 8.316 119.142 8.316H117.846C117.786 8.316 117.732 8.298 117.684 8.262C117.648 8.214 117.63 8.16 117.63 8.1V5.616C117.63 5.556 117.648 5.508 117.684 5.472C117.732 5.424 117.786 5.4 117.846 5.4H125.424C125.484 5.4 125.532 5.424 125.568 5.472C125.616 5.508 125.64 5.556 125.64 5.616V7.056C125.64 7.128 125.622 7.218 125.586 7.326L121.626 17.82C121.59 17.94 121.506 18 121.374 18H119.592ZM134.321 12.546C134.585 13.074 134.717 13.68 134.717 14.364C134.717 15.084 134.561 15.738 134.249 16.326C133.937 16.89 133.481 17.334 132.881 17.658C132.281 17.982 131.573 18.144 130.757 18.144C129.953 18.144 129.239 17.988 128.615 17.676C127.991 17.352 127.523 16.884 127.211 16.272C126.899 15.708 126.743 15.066 126.743 14.346C126.743 13.698 126.881 13.086 127.157 12.51C127.397 12.018 127.739 11.646 128.183 11.394C128.243 11.358 128.249 11.316 128.201 11.268C127.901 11.052 127.631 10.752 127.391 10.368C127.079 9.864 126.923 9.306 126.923 8.694C126.923 7.938 127.145 7.26 127.589 6.66C127.913 6.192 128.351 5.832 128.903 5.58C129.455 5.316 130.073 5.184 130.757 5.184C131.465 5.184 132.083 5.316 132.611 5.58C133.151 5.832 133.583 6.192 133.907 6.66C134.327 7.272 134.537 7.95 134.537 8.694C134.537 9.354 134.375 9.93 134.051 10.422C133.823 10.758 133.559 11.034 133.259 11.25C133.211 11.298 133.211 11.34 133.259 11.376C133.715 11.64 134.069 12.03 134.321 12.546ZM129.209 7.902C129.065 8.214 128.993 8.49 128.993 8.73C128.993 9.138 129.095 9.504 129.299 9.828C129.587 10.32 130.067 10.566 130.739 10.566C131.387 10.566 131.879 10.314 132.215 9.81C132.395 9.546 132.485 9.18 132.485 8.712C132.485 8.448 132.419 8.172 132.287 7.884C132.131 7.608 131.921 7.392 131.657 7.236C131.393 7.068 131.081 6.984 130.721 6.984C130.385 6.984 130.085 7.068 129.821 7.236C129.557 7.392 129.353 7.614 129.209 7.902ZM132.233 15.606C132.485 15.258 132.611 14.784 132.611 14.184C132.611 13.632 132.515 13.2 132.323 12.888C132.023 12.336 131.495 12.06 130.739 12.06C130.031 12.06 129.515 12.324 129.191 12.852C128.987 13.176 128.885 13.626 128.885 14.202C128.885 14.754 128.993 15.204 129.209 15.552C129.533 16.08 130.049 16.344 130.757 16.344C131.429 16.344 131.921 16.098 132.233 15.606ZM143.847 7.632C144.039 8.136 144.135 8.724 144.135 9.396V14.886C144.135 15.534 143.973 16.104 143.649 16.596C143.325 17.088 142.869 17.472 142.281 17.748C141.705 18.012 141.039 18.144 140.283 18.144C139.551 18.144 138.897 18.012 138.321 17.748C137.757 17.484 137.313 17.112 136.989 16.632C136.677 16.152 136.521 15.6 136.521 14.976V14.58C136.521 14.52 136.539 14.472 136.575 14.436C136.623 14.388 136.677 14.364 136.737 14.364H138.393C138.453 14.364 138.501 14.388 138.537 14.436C138.585 14.472 138.609 14.52 138.609 14.58V14.706C138.609 15.186 138.765 15.582 139.077 15.894C139.389 16.194 139.791 16.344 140.283 16.344C140.799 16.344 141.219 16.188 141.543 15.876C141.879 15.552 142.047 15.138 142.047 14.634V12.654C142.047 12.618 142.035 12.594 142.011 12.582C141.987 12.57 141.963 12.576 141.939 12.6C141.423 13.104 140.721 13.356 139.833 13.356C139.125 13.356 138.501 13.206 137.961 12.906C137.433 12.606 137.019 12.174 136.719 11.61C136.383 11.01 136.215 10.266 136.215 9.378C136.215 8.646 136.335 8.004 136.575 7.452C136.863 6.768 137.319 6.234 137.943 5.85C138.567 5.466 139.305 5.274 140.157 5.274C141.057 5.274 141.825 5.484 142.461 5.904C143.109 6.312 143.571 6.888 143.847 7.632ZM141.759 10.692C141.951 10.308 142.047 9.84 142.047 9.288C142.047 8.832 141.969 8.43 141.813 8.082C141.525 7.422 140.985 7.092 140.193 7.092C139.425 7.092 138.885 7.416 138.573 8.064C138.393 8.46 138.303 8.886 138.303 9.342C138.303 9.882 138.411 10.344 138.627 10.728C138.963 11.304 139.479 11.592 140.175 11.592C140.919 11.592 141.447 11.292 141.759 10.692ZM150.135 18.198C148.875 18.198 147.873 17.844 147.129 17.136C146.397 16.416 146.031 15.45 146.031 14.238V9.162C146.031 7.962 146.397 7.014 147.129 6.318C147.873 5.61 148.875 5.256 150.135 5.256C151.395 5.256 152.397 5.61 153.141 6.318C153.897 7.014 154.275 7.962 154.275 9.162V14.238C154.275 15.45 153.897 16.416 153.141 17.136C152.397 17.844 151.395 18.198 150.135 18.198ZM150.135 16.38C150.759 16.38 151.257 16.2 151.629 15.84C152.001 15.468 152.187 14.97 152.187 14.346V9.09C152.187 8.466 152.001 7.974 151.629 7.614C151.257 7.242 150.759 7.056 150.135 7.056C149.523 7.056 149.031 7.242 148.659 7.614C148.299 7.974 148.119 8.466 148.119 9.09V14.346C148.119 14.97 148.299 15.468 148.659 15.84C149.031 16.2 149.523 16.38 150.135 16.38Z" fill="white"/>
</svg>
