<svg width="30" height="30" viewBox="0 0 30 30" fill="none" xmlns="http://www.w3.org/2000/svg">
<path d="M28.8442 2.17879C28.7747 1.91474 28.6363 1.67387 28.4432 1.48079C28.2501 1.2877 28.0093 1.14931 27.7452 1.07975C24.5827 0.257684 21.2523 0.345835 18.1377 1.33405C15.0231 2.32226 12.2511 4.17033 10.141 6.6653L5.20209 12.5294C2.73481 15.4721 1.16962 19.0647 0.69453 22.8754C0.66406 23.1096 0.687784 23.3476 0.763872 23.5712C0.83996 23.7948 0.966379 23.9979 1.13338 24.1649L5.9127 28.9442C6.0558 29.0874 6.22571 29.201 6.41273 29.2785C6.59975 29.356 6.80021 29.3959 7.00266 29.3959C7.04708 29.3959 7.09149 29.3936 7.13666 29.3899C11.0059 29.0701 14.6726 27.5258 17.6046 24.9809L23.2518 19.7883C25.7557 17.6838 27.6105 14.9116 28.6005 11.7942C29.5905 8.67677 29.675 5.34235 28.8442 2.17879V2.17879ZM19.7987 12.5915C19.3413 12.5915 18.8942 12.4559 18.514 12.2018C18.1337 11.9477 17.8373 11.5866 17.6622 11.164C17.4872 10.7414 17.4414 10.2765 17.5306 9.8279C17.6199 9.37932 17.8401 8.96727 18.1635 8.64386C18.4869 8.32045 18.899 8.10021 19.3476 8.01098C19.7961 7.92175 20.2611 7.96755 20.6837 8.14258C21.1062 8.3176 21.4674 8.614 21.7215 8.99429C21.9756 9.37458 22.1112 9.82168 22.1112 10.279C22.111 10.8923 21.8673 11.4804 21.4337 11.914C21 12.3476 20.412 12.5913 19.7987 12.5915V12.5915Z" fill="#C3E8F1"/>
</svg>
