<svg width="28" height="28" viewBox="0 0 28 28" fill="none" xmlns="http://www.w3.org/2000/svg">
<path d="M26.3443 14.5419L22.6042 17.9808C20.6811 19.6573 18.4216 20.903 15.9774 21.6344L16.9698 26.2643C17.0205 26.5007 17.1261 26.7219 17.278 26.9099C17.4299 27.098 17.6239 27.2477 17.8444 27.347C18.0649 27.4463 18.3056 27.4923 18.5471 27.4814C18.7886 27.4705 19.0242 27.403 19.2348 27.2843L25.2555 23.8886C26.1028 23.3737 26.7648 22.603 27.1458 21.6875C27.5267 20.7721 27.6071 19.7594 27.3753 18.7953L26.3443 14.5419ZM10.2016 5.52932L13.4217 1.70617L9.40593 0.737266C8.42966 0.396838 7.36318 0.421197 6.40346 0.805844C5.44375 1.19049 4.65566 1.90944 4.18474 2.82989L0.792781 8.84224C0.673931 9.05283 0.606293 9.28844 0.595334 9.53001C0.584375 9.77157 0.630402 10.0123 0.729695 10.2328C0.828988 10.4533 0.978762 10.6474 1.16691 10.7993C1.35506 10.9512 1.57631 11.0567 1.81278 11.1073L6.54993 12.1227C7.33528 9.71205 8.57481 7.47398 10.2016 5.52932V5.52932ZM24.7983 5.59157C25.2556 5.59157 25.7027 5.45595 26.083 5.20185C26.4633 4.94775 26.7597 4.58658 26.9347 4.16403C27.1098 3.74147 27.1556 3.27651 27.0663 2.82793C26.9771 2.37935 26.7569 1.9673 26.4335 1.64389C26.11 1.32048 25.698 1.10024 25.2494 1.01101C24.8008 0.92178 24.3359 0.967575 23.9133 1.1426C23.4908 1.31763 23.1296 1.61403 22.8755 1.99432C22.6214 2.37461 22.4858 2.8217 22.4858 3.27907C22.486 3.89232 22.7297 4.48038 23.1633 4.91401C23.597 5.34764 24.185 5.59135 24.7983 5.59157V5.59157Z" fill="#027794"/>
</svg>
