<svg width="33" height="18" viewBox="0 0 33 18" fill="none" xmlns="http://www.w3.org/2000/svg">
<path d="M12.3197 9.54417C11.8202 10.1373 11.1971 10.614 10.494 10.9411C9.79088 11.2682 9.0248 11.4376 8.24935 11.4376C7.4739 11.4376 6.70782 11.2682 6.00472 10.9411C5.30163 10.614 4.6785 10.1373 4.17895 9.54417C3.06893 10.2324 2.15248 11.1919 1.516 12.3324C0.879514 13.4729 0.543974 14.7566 0.541016 16.0627C0.541016 16.4715 0.703441 16.8637 0.992559 17.1528C1.28168 17.4419 1.67381 17.6043 2.08268 17.6043H14.416C14.8249 17.6043 15.217 17.4419 15.5061 17.1528C15.7953 16.8637 15.9577 16.4715 15.9577 16.0627C15.9547 14.7566 15.6192 13.4729 14.9827 12.3324C14.3462 11.1919 13.4298 10.2324 12.3197 9.54417V9.54417ZM26.7493 11.4377C25.6822 11.4377 24.6389 11.1212 23.7516 10.5283C22.8642 9.9354 22.1726 9.09269 21.7642 8.10673C21.3559 7.12077 21.249 6.03585 21.4572 4.98916C21.6654 3.94247 22.1793 2.98102 22.9339 2.2264C23.6885 1.47178 24.65 0.957877 25.6967 0.749678C26.7434 0.541479 27.8283 0.648334 28.8142 1.05673C29.8002 1.46513 30.6429 2.15673 31.2358 3.04407C31.8287 3.93141 32.1452 4.97464 32.1452 6.04183C32.1435 7.47237 31.5744 8.84381 30.5629 9.85535C29.5513 10.8669 28.1799 11.4359 26.7493 11.4377Z" fill="#C3E8F1"/>
</svg>
