<svg width="16" height="9" viewBox="0 0 16 9" fill="none" xmlns="http://www.w3.org/2000/svg">
<path d="M11.8198 0.543945C11.3202 1.13705 10.6971 1.61381 9.99397 1.94088C9.29088 2.26794 8.5248 2.4374 7.74935 2.4374C6.9739 2.4374 6.20782 2.26794 5.50472 1.94088C4.80163 1.61381 4.1785 1.13705 3.67895 0.543945C2.56893 1.23214 1.65248 2.19171 1.016 3.33217C0.379513 4.47262 0.0439745 5.7564 0.0410156 7.06244C0.0410156 7.47131 0.203441 7.86344 0.49256 8.15256C0.781678 8.44168 1.17381 8.6041 1.58268 8.6041H13.916C14.3249 8.6041 14.717 8.44168 15.0061 8.15256C15.2953 7.86344 15.4577 7.47131 15.4577 7.06244C15.4547 5.7564 15.1192 4.47262 14.4827 3.33217C13.8462 2.19171 12.9298 1.23214 11.8198 0.543945V0.543945Z" fill="#027794"/>
</svg>
