<svg width="17" height="10" viewBox="0 0 17 10" fill="none" xmlns="http://www.w3.org/2000/svg">
<path d="M16.5281 3.93085L13.4447 0.847511C13.1548 0.562749 12.7641 0.40402 12.3577 0.405861C11.9513 0.407701 11.562 0.569962 11.2746 0.857339C10.9873 1.14472 10.825 1.53395 10.8232 1.94036C10.8213 2.34677 10.9801 2.73746 11.2648 3.02743L11.7165 3.47914H5.28479L5.73649 3.02743C6.02257 2.73772 6.18241 2.34659 6.18112 1.93945C6.17983 1.5323 6.01752 1.1422 5.72961 0.854303C5.44171 0.56641 5.0516 0.404112 4.64445 0.40284C4.2373 0.401567 3.84618 0.561424 3.55649 0.847511L0.473153 3.93085C0.329961 4.07396 0.216371 4.24388 0.138872 4.43091C0.061373 4.61794 0.0214844 4.8184 0.0214844 5.02085C0.0214844 5.2233 0.061373 5.42376 0.138872 5.61079C0.216371 5.79782 0.329961 5.96774 0.473153 6.11085L3.55649 9.19419C3.8462 9.48026 4.23732 9.6401 4.64447 9.63881C5.05162 9.63752 5.44172 9.47521 5.72961 9.1873C6.0175 8.8994 6.1798 8.50929 6.18107 8.10214C6.18235 7.69499 6.02249 7.30388 5.7364 7.01418L5.28469 6.56247H11.7163L11.2646 7.01418C10.9756 7.30328 10.8132 7.69537 10.8132 8.1042C10.8132 8.51303 10.9756 8.90511 11.2647 9.19419C11.5538 9.48326 11.9459 9.64565 12.3548 9.64564C12.7636 9.64562 13.1557 9.48319 13.4447 9.19409L16.5281 6.11076C16.6712 5.96765 16.7848 5.79773 16.8623 5.61071C16.9398 5.42369 16.9797 5.22324 16.9797 5.0208C16.9797 4.81837 16.9398 4.61791 16.8623 4.43089C16.7848 4.24388 16.6712 4.07396 16.5281 3.93085V3.93085Z" fill="#027794"/>
</svg>
