<svg width="12" height="12" viewBox="0 0 12 12" fill="none" xmlns="http://www.w3.org/2000/svg">
<path d="M6.24935 11.4377C5.18216 11.4377 4.13893 11.1212 3.25159 10.5283C2.36425 9.9354 1.67265 9.09269 1.26425 8.10673C0.855854 7.12077 0.748998 6.03585 0.957197 4.98916C1.1654 3.94247 1.6793 2.98102 2.43392 2.2264C3.18854 1.47178 4.14999 0.957877 5.19668 0.749678C6.24337 0.541479 7.32829 0.648334 8.31425 1.05673C9.30021 1.46513 10.1429 2.15673 10.7358 3.04407C11.3287 3.93141 11.6452 4.97464 11.6452 6.04183C11.6435 7.47237 11.0744 8.84381 10.0629 9.85535C9.05133 10.8669 7.67988 11.4359 6.24935 11.4377Z" fill="#0388A9"/>
</svg>
